# xmcd
#
# Track frame offsets: 
#        150
#        14574
#        36074
#        52175
#        65753
#        86831
#        108405
#        130236
#        144201
#        157101
#        172141
#        191232
#        211533
#        231261
#
# Disc length: 3238 seconds
#
# Revision: 0
# Processed by: cddbd v1.5.2PL0 Copyright (c) Steve Scherf et al.
# Submitted via: ExactAudioCopy v0.95b3
#
DISCID=cf0ca40e
DTITLE=Cher - Best of Early Years
DYEAR=2004
DGENRE=Blues
TTITLE0=Sunny
TTITLE1=Shoppin'
TTITLE2=Holdin' Out For Love
TTITLE3=All Really Want To Do
TTITLE4=Boys And Girls
TTITLE5=Holy Smoke
TTITLE6=Mirror Image
TTITLE7=See See Blues
TTITLE8=Come And Stay With Me
TTITLE9=Where Do You Go To
TTITLE10=Outrageous
TTITLE11=Hell On Wheels
TTITLE12=Prisoner
TTITLE13=I Go To Sleep
EXTD=
EXTT0=
EXTT1=
EXTT2=
EXTT3=
EXTT4=
EXTT5=
EXTT6=
EXTT7=
EXTT8=
EXTT9=
EXTT10=
EXTT11=
EXTT12=
EXTT13=
PLAYORDER=
